<?xml version="1.0" standalone="no"?>
<!DOCTYPE svg PUBLIC "-//W3C//DTD SVG 20010904//EN"
 "http://www.w3.org/TR/2001/REC-SVG-20010904/DTD/svg10.dtd">
<svg version="1.0" xmlns="http://www.w3.org/2000/svg"
 width="500.000000pt" height="500.000000pt" viewBox="0 0 500.000000 500.000000"
 preserveAspectRatio="xMidYMid meet">
<metadata>
Created by potrace 1.14, written by Peter Selinger 2001-2017
</metadata>
<g transform="translate(0.000000,500.000000) scale(0.100000,-0.100000)"
fill="#000000" stroke="none">
<path d="M990 2535 l0 -1245 725 0 725 0 0 205 0 205 -505 0 -505 0 0 1040 0
1040 -220 0 -220 0 0 -1245z m430 200 l0 -1035 -210 0 -210 0 0 1035 0 1035
210 0 210 0 0 -1035z m1010 -1235 l0 -190 -715 0 -715 0 0 190 0 190 715 0
715 0 0 -190z"/>
<path d="M2620 2540 l0 -1240 233 2 232 3 1 505 1 505 312 3 311 2 0 220 0
220 -309 0 -309 0 -4 283 c-2 155 -2 285 0 290 2 4 223 7 493 7 l489 0 0 220
0 220 -725 0 -725 0 0 -1240z m1440 1020 l0 -210 -715 0 -715 0 0 210 0 210
715 0 715 0 0 -210z m-990 -510 l0 -290 -220 0 -220 0 0 290 0 290 220 0 220
0 0 -290z m620 -510 l0 -210 -530 0 -530 0 0 210 0 210 530 0 530 0 0 -210z
m-620 -720 l0 -500 -220 0 -220 0 0 500 0 500 220 0 220 0 0 -500z"/>
</g>
</svg>
